<svg xmlns="http://www.w3.org/2000/svg" width="60.281" height="60.274" viewBox="0 0 60.280998 60.273998"><path d="M30.13 27.582L16.692 14.147 30.127.712l13.436 13.435z" fill="#efa724"/><path d="M14.13 43.582L.692 30.147l13.434-13.434 13.437 13.434z" fill="#932279"/><path d="M8.694 8.633h18.95V27.58H8.694zm21.4 50.947l-13.4-13.4L30.09 32.783l13.4 13.4z" fill="#9ccd2a"/><path d="M8.694 32.583h19V51.58h-19zM46.13 43.58L32.692 30.148l13.434-13.435 13.437 13.435z" fill="#262577"/><path d="M32.694 8.583h19V27.58h-19z" fill="#932279"/><path d="M46.13 43.58L32.692 30.148l13.434-13.435 13.437 13.435z" fill="#262577"/><path d="M32.694 32.583h19V51.58h-19z" fill="#efa724"/><path d="M30.14 28.284l.353-.354L43.93 14.497l.352-.355-.353-.353L30.49.353 30.14 0l-.354.354L16.35 13.79l-.353.352.354.354L29.788 27.93l.354.353zm0-1.414L17.41 14.142 30.14 1.415l12.728 12.727L30.14 26.87zm-16 17.41l.355-.353 13.413-13.413.354-.353-.354-.353-13.435-13.435-.354-.353-.355.352L.352 29.785 0 30.137l.352.355 13.436 13.435.353.353zm0-1.414L1.414 30.136 14.12 17.435l12.727 12.728L14.14 42.867z" fill="#fff"/><path d="M8.19 8.134V28.07h19.967V8.135H8.19zm1 1h17.967V27.07H9.19V9.135zm20.907 51.14l.353-.354 13.392-13.39.353-.354-.353-.354-13.392-13.39-.353-.354-.354.353-13.39 13.39-.355.355.354.353 13.39 13.39.355.354zm0-1.415L17.413 46.176l12.684-12.684L42.78 46.177l-12.682 12.68z" fill="#fff"/><path d="M8.19 32.07v20h20v-20h-20zm1 1h18v18h-18v-18zm36.95 11.21l.352-.353 13.436-13.435.353-.354-.35-.352L46.492 16.35l-.353-.353-.355.353L32.35 29.785l-.354.353.354.355 13.435 13.434.354.353zm0-1.414l-12.73-12.73 12.73-12.724 12.726 12.725-12.726 12.73z" fill="#fff"/><path d="M32.19 8.07v20h20v-20h-20zm1 1h18v18h-18v-18zm-1 23v20h20v-20h-20zm1 1h18v18h-18v-18z" fill="#fff"/><path d="M41.367 22.275l4.773-4.77 2.482 2.48 2.484 2.48v4.582h-14.51l4.772-4.772z" fill="#262577"/><path d="M41.367 22.275l4.773-4.77 2.482 2.48 2.484 2.48v4.582h-14.51l4.772-4.772z" fill="#932279"/></svg>