<svg xmlns="http://www.w3.org/2000/svg" width="87.041" height="108.445" viewBox="0 0 87.041 108.445" overflow="visible"><g fill="#A80030"><path d="M51.986 57.297c-1.797.025.34.926 2.686 1.287.648-.506 1.236-1.018 1.76-1.516-1.46.358-2.948.366-4.446.23M61.63 54.893c1.07-1.477 1.85-3.094 2.126-4.766-.24 1.192-.887 2.22-1.496 3.307-3.36 2.115-.316-1.256-.002-2.537-3.612 4.546-.496 2.726-.627 3.996M65.19 45.63c.218-3.237-.636-2.214-.923-.98.335.175.6 2.282.924.98M45.172 1.4c.96.17 2.072.303 1.916.532 1.05-.23 1.287-.442-1.916-.533M47.088 1.932l-.678.14.63-.056.048-.084"/><path d="M76.992 46.856c.107 2.906-.85 4.316-1.713 6.812l-1.554.776c-1.27 2.468.123 1.567-.787 3.53-1.985 1.764-6.022 5.52-7.314 5.863-.943-.02.64-1.113.846-1.54-2.656 1.823-2.13 2.737-6.193 3.845l-.12-.264c-10.018 4.713-23.934-4.627-23.75-17.37-.108.808-.305.606-.527.933-.517-6.556 3.028-13.142 9.007-15.83 5.848-2.896 12.704-1.708 16.893 2.196-2.3-3.014-6.88-6.21-12.31-5.91-5.316.084-10.29 3.463-11.95 7.13-2.724 1.716-3.04 6.612-4.227 7.508C31.7 56.27 36.3 61.342 44.083 67.307c1.225.826.345.95.51 1.58-2.585-1.21-4.953-3.04-6.9-5.277 1.033 1.512 2.148 2.982 3.59 4.137-2.44-.826-5.696-5.908-6.647-6.115 4.203 7.525 17.052 13.197 23.78 10.383-3.113.115-7.068.064-10.566-1.23-1.47-.755-3.467-2.32-3.11-2.614 9.182 3.43 18.667 2.6 26.612-3.77 2.02-1.574 4.23-4.252 4.867-4.29-.962 1.446.163.696-.575 1.972 2.014-3.248-.875-1.322 2.082-5.61l1.092 1.505c-.407-2.696 3.347-5.97 2.966-10.234.86-1.304.96 1.403.047 4.403 1.268-3.328.334-3.863.66-6.61.352.924.814 1.905 1.05 2.88-.825-3.217.85-5.417 1.263-7.286-.408-.18-1.275 1.422-1.473-2.377.03-1.65.46-.865.625-1.27-.324-.187-1.174-1.452-1.69-3.878.374-.57 1 1.478 1.51 1.562-.327-1.93-.892-3.4-.915-4.88-1.49-3.114-.527.415-1.736-1.337-1.586-4.947 1.316-1.148 1.512-3.396 2.403 3.483 3.774 8.88 4.403 11.117-.48-2.725-1.256-5.366-2.203-7.92.73.306-1.176-5.61.95-1.692-2.27-8.352-9.716-16.156-16.565-19.818.838.767 1.896 1.73 1.516 1.88-3.405-2.027-2.806-2.185-3.294-3.042-2.775-1.13-2.957.09-4.795.002-5.23-2.774-6.237-2.48-11.05-4.217l.22 1.023c-3.466-1.154-4.038.438-7.783.004-.228-.178 1.2-.644 2.375-.815-3.35.442-3.193-.66-6.47.122.807-.567 1.66-.942 2.523-1.424-2.732.166-6.522 1.59-5.352.295-4.456 1.988-12.37 4.78-16.81 8.943l-.14-.932c-2.036 2.443-8.875 7.296-9.42 10.46l-.544.127c-1.06 1.793-1.745 3.825-2.585 5.67-1.385 2.36-2.03.908-1.833 1.278-2.724 5.523-4.077 10.164-5.246 13.97.833 1.245.02 7.495.335 12.497-1.367 24.704 17.34 48.69 37.786 54.228 2.997 1.072 7.454 1.03 11.245 1.14-4.472-1.278-5.05-.677-9.407-2.196-3.143-1.48-3.832-3.17-6.058-5.102l.88 1.557c-4.365-1.545-2.538-1.912-6.09-3.037l.94-1.23c-1.414-.106-3.747-2.384-4.385-3.645l-1.548.06c-1.86-2.294-2.85-3.948-2.78-5.23l-.5.892c-.566-.973-6.842-8.607-3.586-6.83-.605-.553-1.41-.9-2.28-2.484l.662-.758c-1.567-2.016-2.884-4.6-2.784-5.46.836 1.128 1.416 1.34 1.99 1.532-3.957-9.818-4.18-.54-7.176-9.994l.634-.05c-.486-.733-.78-1.528-1.172-2.308l.276-2.75c-2.85-3.294-.797-14.006-.386-19.88.285-2.39 2.378-4.933 3.97-8.92l-.97-.168c1.854-3.234 10.586-12.988 14.63-12.486 1.96-2.46-.39-.008-.772-.628 4.303-4.453 5.656-3.146 8.56-3.947 3.132-1.86-2.688.725-1.203-.71 5.414-1.382 3.837-3.143 10.9-3.845.745.424-1.73.655-2.35 1.205 4.51-2.207 14.275-1.705 20.617 1.225 7.36 3.44 15.627 13.605 15.953 23.17l.37.1c-.187 3.802.583 8.2-.75 12.238l.907-1.912"/><path d="M32.372 59.764l-.252 1.26c1.18 1.604 2.118 3.342 3.626 4.596-1.085-2.118-1.89-2.993-3.374-5.856M35.164 59.654c-.625-.69-.995-1.523-1.41-2.352.397 1.457 1.208 2.71 1.963 3.982l-.553-1.63M84.568 48.916l-.264.662c-.484 3.438-1.53 6.84-3.13 9.994 1.77-3.328 2.914-6.968 3.394-10.656M45.527.537C46.742.092 48.514.293 49.803 0c-1.68.14-3.352.225-5.003.438l.727.1M2.872 23.22c.28 2.59-1.95 3.597.494 1.888 1.31-2.95-.512-.815-.494-1.89M0 35.215c.563-1.728.665-2.766.88-3.766C-.676 33.437.164 33.86 0 35.214"/></g></svg>