<svg xmlns="http://www.w3.org/2000/svg" viewBox="0 0 219.333 189" height="189" width="219.333"><defs><clipPath id="a"><path d="M0 141.75h164.5V0H0z"/></clipPath><clipPath id="b"><path d="M27.118 36.697c8.28-6.905 23.033-19.935 47.353-12.496-4.441 1.207-14.918 5.245-21.947 16.768-11.038-3.83-22.922-4.383-25.406-4.272"/></clipPath><clipPath id="c"><path d="M0 141.75h164.5V0H0z"/></clipPath><clipPath id="d"><path d="M14.94 84.894h142.178V22.676H14.941z"/></clipPath></defs><path d="M77.828 73.49H57.984v18.04h19.844zM54.377 73.49H34.533v18.04h19.844zM101.279 73.49H81.436v18.04h19.843zM124.73 73.49h-19.842v18.04h19.843zM148.183 73.49h-19.844v18.04h19.844zM77.828 51.843H57.984v18.04h19.844zM101.279 51.843H81.436v18.04h19.843zM124.73 51.843h-19.842v18.04h19.843zM124.73 30.195h-19.842v18.04h19.843z" fill="#099cec" fill-rule="evenodd"/><g clip-path="url(#a)" transform="matrix(1.33333 0 0 -1.33333 0 189)"><path d="M155.465 82.456c-3.055 2.056-11.08 2.934-16.915 1.362-.314 5.812-3.312 10.71-8.794 14.983l-2.03 1.362-1.353-2.043c-2.658-4.036-3.778-9.413-3.382-14.302.313-3.011 1.36-6.397 3.382-8.853-1.55-1.204-6.363-3.53-12.852-3.405H16.783c-1.72-10.216 1.226-49.034 46-49.034 33.242 0 60.555 14.949 73.06 46.309 4.116-.067 14.979-.737 20.296 9.535.129.172 1.352 2.724 1.352 2.724z" fill="#099cec" fill-rule="evenodd"/></g><g clip-path="url(#b)" transform="matrix(1.33333 0 0 -1.33333 0 189)"><path d="M20.353 15.212h60.884v32.521H20.353z" fill="#fff"/></g><g clip-path="url(#c)" transform="matrix(1.33333 0 0 -1.33333 0 189)"><path d="M51.291 43.352c-5.31-3.03-11.465-4.732-17.994-4.732-3.309 0-6.513.439-9.562 1.263l1.931-3.246a39.382 39.382 0 0 1 7.63-.742 39.01 39.01 0 0 1 19.314 5.073 32.969 32.969 0 0 0-1.319 2.384" fill="#026fb6" fill-rule="evenodd"/><path d="M61.587 45.118c2.598 0 4.704 2.12 4.704 4.735 0 2.616-2.106 4.736-4.704 4.736s-4.704-2.12-4.704-4.736c0-2.615 2.106-4.735 4.704-4.735" fill="#fff" fill-rule="evenodd"/><path d="M62.295 51.184c0 .435.214.804.528 1.053-.368.19-.78.309-1.223.309a2.698 2.698 0 0 1-2.688-2.706 2.698 2.698 0 0 1 2.688-2.706 2.697 2.697 0 0 1 2.688 2.706c0 .054-.013.104-.015.156a1.31 1.31 0 0 0-.625-.173c-.748 0-1.353.609-1.353 1.36" fill="#4d5c64"/><g clip-path="url(#d)" opacity=".05"><path d="M155.074 82.696c-3.044 2.043-11.368 3-16.929 1.383l-1.242-1.75c-18.13-37.524-40.818-53.387-71.818-54.093-33.807.092-42.266 17.918-44.648 42.223h-5.412c-.697-10.216 1.911-47.783 47.033-47.783 33.283 0 60.68 14.914 73.33 46.24 4.127-.067 15.627-.067 20.701 10.217l1.03 2.178z" fill-rule="evenodd"/></g><path d="M28.606 75.809h1.353v8.118h-1.353zM32.665 75.809h1.353v8.118h-1.353zM36.724 75.809h1.353v8.118h-1.353zM46.194 75.809h1.353v8.118h-1.353zM50.253 75.809h1.353v8.118h-1.353zM54.313 75.809h1.353v8.118h-1.353zM63.783 75.809h1.353v8.118h-1.353zM67.842 75.809h1.353v8.118h-1.353zM71.901 75.809h1.353v8.118h-1.353zM81.371 75.809h1.354v8.118h-1.354zM85.431 75.809h1.353v8.118h-1.353zM89.489 75.809h1.354v8.118h-1.354zM98.96 75.809h1.354v8.118H98.96zM103.02 75.809h1.353v8.118h-1.353zM107.078 75.809h1.353v8.118h-1.353zM50.253 92.044h1.353v8.118h-1.353zM54.313 92.044h1.353v8.118h-1.353zM63.783 92.044h1.353v8.118h-1.353zM67.842 92.044h1.353v8.118h-1.353zM71.901 92.044h1.353v8.118h-1.353zM81.371 92.044h1.354v8.118h-1.354zM85.431 92.044h1.353v8.118h-1.353zM89.489 92.044h1.354v8.118h-1.354zM85.431 108.28h1.353v8.118h-1.353zM81.371 108.28h1.354v8.118h-1.354zM89.489 108.28h1.354v8.118h-1.354zM46.194 92.044h1.353v8.118h-1.353z" fill="#066da5"/><path d="M155.124 80.498c-.167-.341-.31-.63-.419-.845-.06-.117-.107-.211-.238-.444-2.009-3.881-4.959-6.31-8.7-7.625-2.961-1.041-5.646-1.274-9.669-1.191l-.703.014-.932.015-.347-.87c-11.836-29.68-37.682-45.454-71.804-45.454-19.506 0-32.234 7.387-39.256 19.99-2.71 4.864-4.433 10.32-5.241 15.907-.56 3.874-.636 7.633-.327 10.412h5.706v-.01h90.649v.026c5.359.06 10.37 1.719 12.885 3.673l1.109.86-.894 1.087c-1.675 2.036-2.756 5.018-3.079 8.126-.384 4.743.766 9.766 3.165 13.408l.601.906.863-.58c5.252-4.103 7.948-8.66 8.235-13.95l.089-1.675 1.611.434c5.268 1.419 12.982.726 15.812-1.18l1.046-.701-.162-.333M25.9 86.633h14.883V73.132H25.9zm17.588 0h14.883V73.132H43.488zm0 16.236h14.883v-13.53H43.488zm17.589-16.236H75.96V73.132H61.077zm0 16.236H75.96v-13.53H61.077zm17.589-16.236h14.882V73.132H78.666zm0 16.236h14.882v-13.53H78.666zm0 16.235h14.882v-13.53H78.666zm17.588-32.471h14.883V73.132H96.254zm59.49-2.835c-3.251 2.188-10.661 3.012-16.467 1.9-.749 5.473-3.818 10.223-9.203 14.419l-3.195 2.144-2.104-3.177c-2.751-4.175-4.039-9.807-3.604-15.167.319-3.074 1.269-6.04 2.794-8.387-2.303-1.283-6.082-2.334-10.122-2.388v16.197H96.254V121.81H75.96v-16.235H40.783V89.339H23.194V73.13h-8.026l-.191-1.134c-.527-3.13-.519-7.693.161-12.395.853-5.9 2.676-11.675 5.558-16.847 7.504-13.47 21.138-21.382 41.616-21.382 34.844 0 61.536 16.088 73.962 46.292 4.198-.075 7.1.192 10.385 1.347 4.353 1.53 7.843 4.397 10.183 8.89.131.217.322.6.729 1.433.148.302.304.624.46.946l.207.43.512 1.068z" fill="#066da5"/><g><path d="M106.72 26.89h.216c.252 0 .456.085.456.289 0 .18-.132.3-.42.3-.12 0-.204-.012-.252-.024zm-.012-1.114h-.456v1.967c.18.036.432.06.756.06.372 0 .539-.06.684-.144a.547.547 0 0 0 .19-.432c0-.216-.167-.384-.406-.455v-.025c.19-.072.3-.215.359-.48.06-.3.096-.42.145-.491h-.492c-.06.072-.096.252-.157.48-.035.216-.155.312-.407.312h-.216zm-1.212 1.032c0-.876.649-1.571 1.536-1.571.864 0 1.499.695 1.499 1.558 0 .876-.635 1.583-1.511 1.583-.875 0-1.524-.707-1.524-1.57m3.538 0c0-1.116-.875-1.991-2.014-1.991-1.127 0-2.027.875-2.027 1.99 0 1.092.9 1.968 2.027 1.968 1.139 0 2.014-.876 2.014-1.967" fill="#066da5"/></g></g></svg>