<svg xmlns="http://www.w3.org/2000/svg" width="615.447" height="774.146" viewBox="0 0 615.447 774.146"><defs><clipPath id="a"><path d="M0 619.317h492.358V0H0v619.317z"/></clipPath></defs><g clip-path="url(#a)" transform="matrix(1.25 0 0 -1.25 0 774.15)"><path d="M133.28 619.306c-3.18-.096-6.604-1.252-10.487-4.272-9.516 3.614-18.74 4.87-26.988-2.487-12.737 1.628-16.877-1.73-20.014-5.65-2.795.056-20.924 2.83-29.236-9.385-20.892 2.435-27.496-12.104-20.015-25.66-4.267-6.507-8.686-12.936 1.29-25.338-3.53-6.908-1.34-14.4 6.974-23.47-2.195-9.713 2.12-16.564 9.855-21.903-1.448-13.288 12.37-21.015 16.498-23.77 1.584-7.74 4.887-15.048 20.672-19.088 2.603-11.54 12.09-13.532 21.276-15.954-30.363-17.384-56.4-40.257-56.223-96.377l-4.45-7.814C7.622 317.282-23.7 250.256 25.28 195.778c3.2-17.054 8.565-29.303 13.342-42.86 7.147-54.627 53.78-80.206 66.08-83.232 18.025-13.522 37.22-26.353 63.197-35.34C192.385 9.47 218.913-.012 245.59.002c.39 0 .788-.005 1.18 0 26.674-.015 53.204 9.464 77.69 34.342 25.977 8.988 45.173 21.82 63.198 35.34 12.3 3.027 58.933 28.606 66.08 83.234 4.775 13.555 10.142 25.804 13.34 42.858 48.982 54.483 17.66 121.513-17.156 142.367l-4.454 7.813c.176 56.115-25.86 78.988-56.223 96.376 9.187 2.422 18.673 4.414 21.275 15.953 15.786 4.042 19.09 11.35 20.672 19.09 4.128 2.754 17.947 10.48 16.5 23.77 7.735 5.34 12.05 12.192 9.856 21.902 8.315 9.07 10.502 16.563 6.973 23.472 9.98 12.397 5.552 18.824 1.29 25.33 7.477 13.557.88 28.096-20.02 25.66-8.31 12.215-26.433 9.442-29.235 9.385-3.137 3.92-7.274 7.28-20.012 5.65-8.248 7.358-17.473 6.102-26.987 2.488-11.3 8.78-18.774 1.743-27.313-.917-13.677 4.4-16.806-1.63-23.525-4.084-14.917 3.104-19.45-3.655-26.602-10.79l-8.318.162c-22.5-13.06-33.675-39.653-37.637-53.323-3.964 13.674-15.116 40.266-37.61 53.323l-8.317-.163c-7.16 7.136-11.695 13.895-26.61 10.79-6.72 2.456-9.84 8.486-23.526 4.085-5.604 1.746-10.76 5.376-16.828 5.192l.01-.005z"/><path d="M88.485 561.85c59.692-30.31 94.394-54.832 113.404-75.715-9.736-38.435-60.525-40.19-79.095-39.11 3.8 1.742 6.974 3.83 8.1 7.04-4.66 3.26-21.184.343-32.72 6.726 4.43.906 6.505 1.786 8.576 5.007-10.896 3.423-22.636 6.375-29.54 12.046 3.727-.047 7.204-.82 12.072 2.503-9.763 5.182-20.18 9.287-28.27 17.208 5.045.12 10.486.05 12.068 1.877-8.933 5.452-16.472 11.517-22.713 18.148 7.065-.84 10.047-.117 11.755 1.096-6.753 6.81-15.302 12.566-19.377 20.962 5.244-1.78 10.042-2.462 13.502.156-2.296 5.1-12.13 8.108-17.79 20.025 5.52-.527 11.376-1.186 12.548 0-2.564 10.283-6.96 16.064-11.273 22.054 11.816.173 29.717-.044 28.907.94l-7.306 7.353c11.54 3.06 23.35-.492 31.923-3.13 3.85 2.992-.068 6.776-4.765 10.64 9.81-1.292 18.672-3.513 26.682-6.573 4.282 3.808-2.778 7.615-6.194 11.42 15.154-2.83 21.575-6.81 27.954-10.793 4.63 4.37.266 8.084-2.86 11.89 11.427-4.17 17.313-9.55 23.508-14.863 2.1 2.793 5.337 4.84 1.43 11.577 8.11-4.605 14.22-10.032 18.742-16.112 5.018 3.148 2.99 7.453 3.017 11.42 8.43-6.755 13.782-13.944 20.332-20.963 1.318.945 2.474 4.155 3.493 9.23 20.112-19.22 48.532-67.63 7.306-86.824-35.086 28.504-76.99 49.222-123.427 64.763l.012.008zM405.208 561.85c-59.686-30.315-94.386-54.828-113.397-75.715 9.736-38.435 60.526-40.19 79.097-39.11-3.803 1.742-6.975 3.83-8.1 7.04 4.66 3.26 21.184.343 32.72 6.726-4.432.906-6.505 1.786-8.578 5.007 10.897 3.423 22.637 6.375 29.542 12.046-3.726-.047-7.207-.82-12.072 2.503 9.76 5.182 20.178 9.287 28.27 17.208-5.046.12-10.486.05-12.07 1.877 8.936 5.452 16.474 11.517 22.713 18.148-7.062-.84-10.045-.117-11.754 1.096 6.754 6.81 15.3 12.566 19.377 20.962-5.244-1.78-10.042-2.462-13.5.156 2.294 5.1 12.126 8.108 17.787 20.025-5.52-.527-11.375-1.186-12.547 0 2.567 10.287 6.965 16.068 11.276 22.06-11.815.17-29.716-.047-28.907.937l7.308 7.352c-11.543 3.06-23.35-.49-31.926-3.128-3.848 2.992.07 6.776 4.765 10.637-9.808-1.29-18.672-3.51-26.683-6.57-4.28 3.806 2.78 7.613 6.195 11.42-15.153-2.83-21.573-6.81-27.954-10.794-4.63 4.37-.263 8.086 2.86 11.89-11.425-4.168-17.31-9.55-23.506-14.86-2.1 2.79-5.336 4.837-1.43 11.576-8.112-4.607-14.22-10.034-18.74-16.114-5.02 3.148-2.99 7.453-3.02 11.42-8.43-6.755-13.78-13.943-20.33-20.962-1.318.945-2.473 4.155-3.493 9.23-20.112-19.22-48.533-67.63-7.305-86.825 35.068 28.51 76.97 49.226 123.41 64.767h-.007z" fill="#8cc04b"/><path d="M322.296 170.472c.208-35.865-31.636-65.093-71.123-65.283-39.487-.19-71.668 28.732-71.876 64.597v.685c-.207 35.865 31.635 65.094 71.124 65.283 39.488.19 71.67-28.732 71.876-64.598v-.685M209.425 355.987c29.627-19.118 34.968-62.455 11.93-96.793-23.038-34.34-65.732-46.68-95.357-27.56-29.626 19.117-34.967 62.455-11.928 96.794 23.038 34.34 65.73 46.678 95.355 27.56M289.39 359.45c-29.627-19.12-34.968-62.457-11.93-96.794 23.04-34.34 65.73-46.68 95.357-27.56 29.627 19.117 34.968 62.455 11.93 96.794-23.038 34.34-65.73 46.678-95.357 27.56M61.358 324.73c31.985 8.446 10.798-130.34-15.226-118.952-28.63 22.68-37.85 89.1 15.226 118.953M431 326.462c-31.99 8.442-10.798-130.35 15.23-118.96 28.625 22.68 37.846 89.107-15.23 118.96M322.322 429.812c55.2 9.18 101.13-23.122 99.278-82.08-1.817-22.603-119.616 78.715-99.278 82.08M169.807 431.543c-55.204 9.18-101.13-23.13-99.277-82.082 1.814-22.6 119.614 78.717 99.277 82.083M249.1 445.29c-32.945.846-64.564-24.083-64.64-38.542-.093-17.57 26.047-35.558 64.864-36.014 39.64-.28 64.934 14.4 65.062 32.53.145 20.543-36.052 42.345-65.286 42.03v-.003zM251.11 85.017c28.724 1.236 67.268-9.113 67.344-22.84.476-13.33-34.956-43.448-69.25-42.866-35.514-1.507-70.337 28.657-69.88 39.113-.533 15.33 43.243 27.297 71.787 26.594M145.017 166.373c20.45-24.268 29.772-66.904 12.706-79.47-16.147-9.597-55.356-5.646-83.227 33.79-18.793 33.09-16.372 66.763-3.175 76.654 19.736 11.84 50.227-4.152 73.697-30.974M353.113 174.065c-22.126-25.528-34.448-72.088-18.306-87.083 15.432-11.65 56.864-10.02 87.47 31.805 22.22 28.09 14.774 75.006 2.08 87.463-18.855 14.367-45.924-4.02-71.244-32.177v-.008z" fill="#c7053d"/></g></svg>