<svg xmlns="http://www.w3.org/2000/svg" width="283.464" height="283.463" viewBox="0 0 283.464 283.46299"><path d="M283.464 141.728c0 78.28-63.45 141.735-141.73 141.735C63.457 283.463 0 220.007 0 141.728 0 63.454 63.457 0 141.735 0c78.28 0 141.73 63.453 141.73 141.728z" fill="#e95420"/><path d="M68.176 141.728c0 10.064-8.16 18.225-18.23 18.225-10.06 0-18.218-8.16-18.218-18.225 0-10.06 8.16-18.22 18.218-18.22 10.07 0 18.23 8.16 18.23 18.22zm103.674 88.606c5.033 8.71 16.173 11.696 24.89 6.67 8.714-5.033 11.7-16.18 6.668-24.895-5.032-8.716-16.173-11.696-24.888-6.664-8.716 5.033-11.702 16.173-6.67 24.888zm31.557-158.982c5.032-8.717 2.052-19.86-6.67-24.887-8.71-5.032-19.854-2.046-24.888 6.667-5.033 8.715-2.047 19.857 6.67 24.89 8.715 5.03 19.86 2.045 24.887-6.67zm-61.672 18.413c27.153 0 49.434 20.814 51.76 47.364l26.373-.417c-1.252-19.727-9.81-37.47-22.995-50.55-6.98 2.692-15.08 2.326-22.066-1.71-6.992-4.038-11.36-10.872-12.514-18.276-6.554-1.78-13.448-2.733-20.558-2.733-12.47 0-24.26 2.916-34.727 8.103L119.84 94.59c6.65-3.09 14.077-4.825 21.895-4.825zm-51.97 51.963c0-17.577 8.735-33.12 22.098-42.52l-13.54-22.634c-15.684 10.474-27.367 26.45-32.296 45.183 5.833 4.697 9.57 11.897 9.57 19.972 0 8.08-3.738 15.28-9.57 19.977 4.93 18.73 16.612 34.708 32.296 45.188l13.54-22.634c-13.363-9.405-22.097-24.943-22.097-42.532zm51.97 51.973c-7.817 0-15.244-1.733-21.895-4.83l-12.832 23.044c10.468 5.19 22.255 8.104 34.727 8.104 7.11 0 14.004-.946 20.558-2.73 1.154-7.408 5.52-14.242 12.514-18.272 6.987-4.037 15.086-4.404 22.066-1.71 13.187-13.09 21.743-30.83 22.995-50.558l-26.372-.41c-2.328 26.544-24.608 47.363-51.76 47.363z" fill="#fff"/></svg>